<svg xmlns="http://www.w3.org/2000/svg" version="1.1" xmlns:xlink="http://www.w3.org/1999/xlink" width="512" height="512" x="0" y="0" viewBox="0 0 512 512" style="enable-background:new 0 0 512 512" xml:space="preserve" class=""><g><path fill="#f98824" d="M146.712 28.956c17.242-5.229 40.892.899 60.528 17.376s29.778 38.703 27.623 56.591c6.187-1.867 11.544-5.194 15.603-10.031 15.373-18.321 6.216-51.311-20.458-73.693-26.674-22.382-60.753-25.671-76.126-7.35l-22.768 27.133z" opacity="1" data-original="#f98824"></path><path fill="#f82f40" d="M234.863 102.923c-.764 6.417-3.11 12.271-7.165 17.102-15.378 18.326-49.457 15.037-76.131-7.345s-35.831-55.372-20.453-73.699c4.054-4.831 9.411-8.159 15.598-10.025-2.15 17.893 7.986 40.114 27.623 56.591 19.636 16.477 43.28 22.601 60.528 17.376z" opacity="1" data-original="#f82f40"></path><path fill="#f98824" d="M365.288 28.956c-17.242-5.229-40.892.899-60.528 17.376s-29.779 38.703-27.623 56.591c-6.187-1.867-11.544-5.194-15.603-10.031-15.373-18.321-6.216-51.311 20.458-73.693 26.674-22.382 60.753-25.671 76.126-7.35l22.768 27.133z" opacity="1" data-original="#f98824"></path><path fill="#f82f40" d="M277.137 102.923c.764 6.417 3.11 12.271 7.164 17.102 15.378 18.326 49.457 15.037 76.131-7.345s35.831-55.372 20.453-73.699c-4.054-4.831-9.411-8.159-15.598-10.025 2.15 17.893-7.986 40.114-27.623 56.591-19.635 16.477-43.279 22.601-60.527 17.376z" opacity="1" data-original="#f82f40"></path><path fill="#fcb44d" d="M276.827 82.261h-41.654v-49.72c0-5.722 4.639-10.361 10.361-10.361h20.932c5.722 0 10.361 4.639 10.361 10.361z" opacity="1" data-original="#fcb44d"></path><path fill="#31a7fb" d="M112.608 117.012h286.785V322.5H112.608z" opacity="1" data-original="#31a7fb"></path><path fill="#31a7fb" d="M112.609 117.008h286.782v205.49H112.609z" opacity="1" data-original="#31a7fb"></path><path fill="#1c96f9" d="M366.075 117.012h33.317V322.5h-33.317z" opacity="1" data-original="#1c96f9"></path><path fill="#1c96f9" d="M112.608 117.012h286.785v35.845H112.608z" opacity="1" data-original="#1c96f9"></path><g fill="#1785f8"><path d="M218.141 322.498h-21.85l-83.682-83.681v-21.861zM280.632 322.498h-21.851L112.609 176.326v-21.84zM343.112 322.498h-21.85l-205.49-205.49h21.85zM399.391 253.806v21.86L240.743 117.008h21.85zM399.391 191.315v21.86l-96.167-96.167h21.86z" fill="#1785f8" opacity="1" data-original="#1785f8"></path></g><path fill="#fcb44d" d="M225.523 117.012h60.954V322.5h-60.954z" opacity="1" data-original="#fcb44d"></path><path fill="#fb9927" d="M225.523 117.012h60.954v35.845h-60.954z" opacity="1" data-original="#fb9927"></path><path fill="#ffd496" d="M424.375 190.878V393.86L101.53 511.366c-6.758 2.46-13.905-2.545-13.905-9.736V298.647L410.47 181.142c6.758-2.46 13.905 2.545 13.905 9.736z" opacity="1" data-original="#ffd496"></path><path fill="#fcb44d" d="M424.37 190.883V393.86l-35.104 12.775v-205.39c0-4.704-3.046-8.455-7.035-9.822l28.234-10.278c6.766-2.467 13.905 2.537 13.905 9.738z" opacity="1" data-original="#fcb44d"></path><path fill="#ffd496" d="M424.375 279.693V393.86L101.53 511.366c-6.758 2.46-13.905-2.545-13.905-9.736v-99.37z" opacity="1" data-original="#ffd496"></path><path fill="#fcb44d" d="M424.37 279.69v99.945L87.64 502.187c-.01-.187-.01-.373-.01-.56v-99.364z" opacity="1" data-original="#fcb44d"></path><path fill="#fb4a59" d="M481.682 330.102v114.504c0 4.457-5.389 6.689-8.541 3.538L355.099 330.102z" opacity="1" data-original="#fb4a59"></path><path fill="#f82f40" d="M481.668 330.097v28.68l-71.773 26.121-54.8-54.801z" opacity="1" data-original="#f82f40"></path><path fill="#f82f40" d="M444.667 330.102v89.568l28.473 28.473c3.152 3.152 8.541.92 8.541-3.538V330.102z" opacity="1" data-original="#f82f40"></path><path fill="#fb4a59" d="M30.318 362.406V247.903c0-4.457 5.389-6.689 8.541-3.538L156.9 362.406z" opacity="1" data-original="#fb4a59"></path><path fill="#f82f40" d="M156.9 362.404h-46.168l-80.409-80.409v-34.091c0-4.463 5.383-6.694 8.535-3.542z" opacity="1" data-original="#f82f40"></path><path fill="#fb6672" d="M481.669 205.17v125.04L37.045 492.04c-3.263 1.188-6.714-1.229-6.714-4.701V362.298l444.624-161.829c3.263-1.188 6.714 1.228 6.714 4.701z" opacity="1" data-original="#fb6672"></path><path fill="#fb4a59" d="M444.667 211.492v132.186l37.002-13.467V205.17c0-3.473-3.451-5.889-6.714-4.701z" opacity="1" data-original="#fb4a59"></path><g fill="#eef4f5"><path d="m435.992 303.676-7.835-21.525 5.716-18.975a7.727 7.727 0 0 0-14.797-4.458l-3.473 11.531-10.073-6.601a7.726 7.726 0 0 0-8.47 12.924l16.575 10.862 7.835 21.526a7.73 7.73 0 0 0 7.262 5.086 7.7 7.7 0 0 0 2.642-.468 7.724 7.724 0 0 0 4.618-9.902zM238.258 367.423l-17.917 6.522-2.138-5.873 12.379-4.505a7.728 7.728 0 0 0-5.285-14.521l-12.379 4.505-2.138-5.874 17.918-6.522a7.727 7.727 0 0 0-5.285-14.521l-25.178 9.164a7.727 7.727 0 0 0-4.618 9.903l7.354 20.204c.022.064.036.129.06.193.015.041.038.077.054.118l7.379 20.273a7.73 7.73 0 0 0 7.262 5.086 7.7 7.7 0 0 0 2.642-.468l25.178-9.164a7.728 7.728 0 1 0-5.288-14.52zM293.74 338.273a.126.126 0 0 1-.003-.01l-.004-.009-4.736-13.011a20.99 20.99 0 0 0-10.923-11.921 20.991 20.991 0 0 0-16.152-.706c-5.302 1.93-9.535 5.809-11.92 10.923s-2.635 10.851-.705 16.152l10.264 28.2a7.73 7.73 0 0 0 7.262 5.086 7.728 7.728 0 0 0 7.26-10.371l-2.882-7.918 10.657-3.879 2.882 7.918a7.728 7.728 0 0 0 14.521-5.285zm-27.823 1.894-2.097-5.762a5.63 5.63 0 0 1 .189-4.336 5.634 5.634 0 0 1 3.199-2.932 5.64 5.64 0 0 1 4.337.189 5.64 5.64 0 0 1 2.932 3.2l2.097 5.761zM395.948 301.064v-.001l-.001-.001-4.739-13.02a20.988 20.988 0 0 0-10.923-11.92 20.986 20.986 0 0 0-16.152-.705 20.983 20.983 0 0 0-11.919 10.923 20.98 20.98 0 0 0-.705 16.151l10.264 28.2a7.73 7.73 0 0 0 7.262 5.086 7.728 7.728 0 0 0 7.26-10.371l-2.882-7.918 10.657-3.879 2.882 7.917a7.728 7.728 0 0 0 14.521-5.285zm-27.821 1.901-2.097-5.762a5.627 5.627 0 0 1 .189-4.335 5.633 5.633 0 0 1 3.2-2.932c1.424-.518 2.964-.451 4.336.189s2.413 1.776 2.932 3.2l2.097 5.761zM175.564 344.415a7.727 7.727 0 0 0-7.334 8.101l1.013 20.369-12.317-16.255a7.724 7.724 0 0 0-10.824-1.491 7.726 7.726 0 0 0-1.492 10.824l27.436 36.207a7.726 7.726 0 0 0 13.875-5.05l-2.257-45.371c-.212-4.262-3.845-7.548-8.1-7.334zM131.987 368.133a7.722 7.722 0 0 0-9.903-4.618 7.728 7.728 0 0 0-4.618 9.903l14.845 40.789a7.73 7.73 0 0 0 7.262 5.086 7.728 7.728 0 0 0 7.26-10.371zM335.521 294.052A7.727 7.727 0 0 0 321 299.337l8.382 23.03-.203-.097a7.726 7.726 0 0 0-10.362 3.771l-.093.203-8.381-23.028a7.726 7.726 0 1 0-14.521 5.285l14.846 40.789a7.726 7.726 0 0 0 14.293.558l4.661-10.242 10.155 4.85a7.721 7.721 0 0 0 8.523-1.252 7.724 7.724 0 0 0 2.067-8.363zM116.161 401.284a7.726 7.726 0 0 0-9.903-4.618l-8.192 2.982a7.727 7.727 0 0 0-4.618 9.903c.903 2.482 2.952 4.202 5.33 4.819a5.636 5.636 0 0 1-.524 2.243 5.633 5.633 0 0 1-3.2 2.932 5.634 5.634 0 0 1-4.336-.189 5.637 5.637 0 0 1-2.932-3.2l-5.682-15.61a5.678 5.678 0 0 1 3.388-7.269 5.608 5.608 0 0 1 4.635.339 7.727 7.727 0 0 0 7.33-13.604 21.157 21.157 0 0 0-17.249-1.257c-10.944 3.984-16.608 16.129-12.625 27.075l5.682 15.61a20.988 20.988 0 0 0 10.923 11.92 21.056 21.056 0 0 0 8.914 1.99 21.186 21.186 0 0 0 7.237-1.285 20.988 20.988 0 0 0 11.92-10.923 20.943 20.943 0 0 0 1.515-13.229c2.481-2.018 3.543-5.453 2.387-8.629z" fill="#eef4f5" opacity="1" data-original="#eef4f5"></path></g><path fill="#64b9fc" d="M406.388 125.93H105.612c-5.722 0-10.361-4.639-10.361-10.361V89.674c0-5.722 4.639-10.361 10.361-10.361h300.776c5.722 0 10.361 4.639 10.361 10.361v25.894c0 5.723-4.639 10.362-10.361 10.362z" opacity="1" data-original="#64b9fc"></path><path fill="#31a7fb" d="M416.744 89.675v25.893c0 5.719-4.632 10.361-10.361 10.361h-35.104c5.719 0 10.361-4.642 10.361-10.361V89.675c0-5.719-4.642-10.361-10.361-10.361h35.104c5.73 0 10.361 4.641 10.361 10.361z" opacity="1" data-original="#31a7fb"></path><path fill="#fcc16d" d="M218.349 79.313h75.301v46.617h-75.301z" opacity="1" data-original="#fcc16d"></path></g></svg>