<svg xmlns="http://www.w3.org/2000/svg" version="1.1" xmlns:xlink="http://www.w3.org/1999/xlink" width="512" height="512" x="0" y="0" viewBox="0 0 64 64" style="enable-background:new 0 0 512 512" xml:space="preserve" class=""><g><g data-name="31 delivery box"><path d="M36.265 47.617a1.034 1.034 0 0 1-.55.913.973.973 0 0 1-.488.124 1.058 1.058 0 0 1-.571-.176L32 46.7l-2.656 1.774a1.05 1.05 0 0 1-1.059.052 1.034 1.034 0 0 1-.55-.913V36.8H16.881v22.7h30.238V36.8H36.265zm.083 4.306a1.041 1.041 0 0 1 1.037-1.038h6.465a1.041 1.041 0 0 1 1.038 1.038v4.306a1.041 1.041 0 0 1-1.038 1.038h-6.465a1.041 1.041 0 0 1-1.037-1.038zM32 18.251a10.715 10.715 0 0 1 16.271-3.871 18.34 18.34 0 0 0-32.542 0A10.715 10.715 0 0 1 32 18.251z" fill="#000000" opacity="1" data-original="#000000"></path><path d="M30.962 22.848a8.652 8.652 0 0 0-17.287-.55l17.287 11.539zM41.692 14.194a8.662 8.662 0 0 0-8.654 8.654v10.978L50.325 22.3a8.661 8.661 0 0 0-8.633-8.106zM29.811 45.676l1.618-1.076a1.014 1.014 0 0 1 1.142 0l1.618 1.079V36.8h-4.378zM38.423 52.961h4.389v2.231h-4.389z" fill="#000000" opacity="1" data-original="#000000"></path></g></g></svg>