<svg id="SvgjsSvg1001" width="256" height="256" xmlns="http://www.w3.org/2000/svg" version="1.1" xmlns:xlink="http://www.w3.org/1999/xlink" xmlns:svgjs="http://svgjs.com/svgjs"><defs id="SvgjsDefs1002"></defs><g id="SvgjsG1008"><svg xmlns="http://www.w3.org/2000/svg" enable-background="new 0 0 38 38" viewBox="0 0 38 38" width="256" height="256"><path d="M20.1142979,26.7468262l-0.8984375-0.3164063l-0.4108887,1.1669922
			c0.1046886,0.0369225,1.0336437,0.3645592,0.9289551,0.3276367c0.3892307,0.1006622,0.6398392-0.1883678,0.7348633-0.5708008
			C20.5308018,27.1052246,20.3750401,26.838623,20.1142979,26.7468262z"></path><path d="M15.8129072,26.8571777c-0.6687012,1.8989258,0.3312979,3.9812012,2.2302847,4.6499023
			c1.8990479,0.668457,3.9801636-0.3286133,4.6488647-2.2275391c0.6687012-1.8991699-0.3284912-3.9802246-2.2275391-4.6489258
			C18.5655308,23.9619141,16.4816685,24.958252,15.8129072,26.8571777z M20.6064854,26.0671387l-0.1157837,0.3288574
			c0.3632813,0.2336426,0.5675049,0.6604004,0.4634399,1.0788574c-0.0921402,0.3705063-0.3140182,0.7264194-0.6645508,0.8852539
			c0.5275536,0.7131977-0.1352463,1.7709961-1.0844727,1.7709961c-0.0092773,0-0.0186768-0.0048828-0.0279541-0.0048828
			c-0.0954494,0.192812-0.0907402,0.5175781-0.3592529,0.5175781c-0.1722946,0-0.2931137-0.1703243-0.2358398-0.3330078
			l0.1011353-0.2873535l-0.1583252-0.0559082c-0.0725746,0.1409435-0.0759583,0.4541016-0.336853,0.4541016
			c-0.1722946,0-0.2931137-0.1703243-0.2358398-0.3330078l0.1010132-0.2871094
			c-0.1045132-0.0367527-0.7547722-0.2654152-0.6498413-0.2285156c-0.1303711-0.0458984-0.1987305-0.1884766-0.152832-0.3188477
			c0.0454102-0.1298828,0.1894531-0.1987305,0.3188477-0.152832l0.1567383,0.0551758l1.0181274-2.892334l-0.156311-0.0549316
			c-0.3122234-0.1099224-0.1459999-0.581871,0.1660156-0.4716797l0.6497803,0.2287598l0.1011963-0.2873535
			c0.110363-0.3134727,0.581274-0.1452751,0.4716797,0.1660156l-0.1011963,0.2873535l0.1583252,0.0559082l0.1010742-0.2871094
			c0.0454102-0.1303711,0.1894531-0.1992188,0.3188477-0.152832C20.5840244,25.7941895,20.6523838,25.9367676,20.6064854,26.0671387
			z"></path><path d="M19.3896885,28.3337402l-0.7507324-0.2646484l-0.4411621,1.253418l0.2567139,0.090332
			c0.0001831,0,0.0004272-0.0002441,0.0006104,0c0.0001831,0,0.0002441,0.0002441,0.0004272,0.0002441l0.4927368,0.173584
			c0.4038086,0.140625,0.8486328-0.0712891,0.9912109-0.4746094C20.0903721,28.682373,19.7236729,28.451416,19.3896885,28.3337402z"></path><path d="M32.156414,9.7978516c-0.2500019,0.329834-0.3800068,0.7800293-0.0800171,1.5500488
			c0.0499878,0.1298828-0.0100098,0.2797852-0.1400166,0.3300781c-0.1145973,0.037343-0.2627277-0.01161-0.3200073-0.1401367
			c-0.3800049-0.9699707-0.1900024-1.5700684,0.1000366-1.9899902c-0.4000244-0.5500488-0.9500122-0.920166-1.5700073-1.0600586
			c-0.6923828-0.1616211-1.3938599-0.0185547-1.9732056,0.3579102c-2.1753273-2.5953903-5.05546-3.8921089-8.2769775-4.1079102
			c-0.3453846,0.0716376-4.4409504-0.1630545-8.0580435,3.1281738c-0.5038395-2.856144-3.6250629-3.4906659-5.1517949-1.5080566
			c0.7800293,0.7399902,0.6400146,1.5300293,0.460022,1.9799805C7.1064248,8.4279785,7.0063882,8.487793,6.9064126,8.487793
			c-0.1670194,0-0.2970629-0.17904-0.2300415-0.3400879c0.2200317-0.5200195,0.1199951-0.9697266-0.2799683-1.369873
			c0,0.0100098-0.0100098,0.0100098-0.0100098,0.0200195c-0.3099976-0.130127-0.6400146-0.1999512-0.960022-0.2299805
			C3.4125206,6.4078789,2.0677543,8.4957705,3.106425,10.237793c0.5721664,1.0250101,1.2407286,1.380127,2.279968,1.380127
			c0.4862289,0-0.7718401-0.0201054,3.4901738-0.0400391c-0.8467407,1.4472656-1.5851445,3.0834961-2.1864018,4.8879395
			c-0.1583862,0.4560242,0.288888,0.8986397,0.7529297,0.7363281l2.1401372-0.793457
			C9.6056929,16.3999023,9.635478,16.4204102,9.6525679,16.4375c0.6542969,0.6337891,1.7926636,0.7705078,3.5637207,0.4257813
			l3.7538443,6.5458984c-1.2318106,0.6018066-2.1619864,1.6403809-2.6173697,2.934082
			c-1.1853619,3.3673515,1.3237715,6.9189453,4.8964834,6.9189453c2.1420898,0,4.1523438-1.3359375,4.9033203-3.4682617
			c0.8338013-2.3688965-0.159668-4.9438477-2.2384033-6.1831055c0.1094017-0.0746498-0.1677914,0.3309307,3.5552979-6.260498
			c1.8920288,0.5812988,3.0983887,0.5427246,3.7236328-0.1057129c0.0265503-0.0263672,0.0493164-0.0351563,0.069519-0.0383301
			c0.0014648,0,0.0022583,0.001709,0.0037231,0.001709c0.0020752,0,0.0032959-0.0021973,0.0053711-0.0024414
			c0.0161743-0.0009766,0.0314941-0.0002441,0.0449219-0.0029297c2.027113,0.9961491,1.9842052,1.0478516,2.2177734,1.0478516
			c0.3531532,0,0.6612186-0.3348598,0.5751972-0.7207031c-0.2775898-1.1640625-0.6020527-2.2399902-0.9560566-3.2319336h0.9228535
			c0.4097443,0,1.1180954,0.1068687,1.710022-0.130127c0.820713-0.3282499,1.6535606-1.510253,1.4299927-2.7397461
			C34.9489174,10.0905857,33.4855385,9.3139963,32.156414,9.7978516z M27.7783604,9.1533203
			c-0.2700195,0.2592773-0.4900513,0.5705566-0.6395264,0.9396973c-0.5405273-1.1135254-1.1589355-2.170166-1.8552856-3.1496582
			C26.2051182,7.5310059,27.0362949,8.270752,27.7783604,9.1533203z M7.2741494,16.7314453
			c-0.0620141,0.0232563-0.1339493-0.0370693-0.1103516-0.1044922c1.4508939-4.3559914,3.8259549-8.4733553,7.9763188-10.3398438
			c-2.3111572,2.010498-4.2388306,5.1965332-5.8529663,9.6982422L7.2741494,16.7314453z M10.0031538,16.0810547
			c-0.0514526-0.0515137-0.1174927-0.0708008-0.1795044-0.0998535c1.8596802-5.1184082,4.1155396-8.4855957,6.8926382-10.2724609
			c0.6505127-0.1831055,1.3259888-0.3178711,2.0306396-0.3945313c-0.7068481,0.8300781-1.3036499,2.0703125-1.8096924,3.7790527
			c-0.0390625,0.1323242,0.0361328,0.2714844,0.1689453,0.3105469c0.1342278,0.0391502,0.2717533-0.0378704,0.3105469-0.1689453
			c0.5655518-1.907959,1.2622681-3.2399902,2.0697632-3.9709473c0.4854469-0.0269942,0.2003994-0.0604825,1.1654053,0.0610352
			c1.4384155,2.3596191,2.2086792,5.777832,2.4173584,10.7175293c-0.0201416,0.0053711-0.0435791,0.0039063-0.0621948,0.012207
			c-2.4421387,0.934082-4.7334595,0.8476563-6.8218994-0.244873c0.2163696-1.8395996,0.4855957-3.4853516,0.8023682-4.8850098
			c0.0735531-0.3222294-0.4157333-0.4341793-0.4873047-0.1103516c-0.3171997,1.3994141-0.5863638,3.0410156-0.80371,4.871582
			C15.2216892,15.746685,11.2874041,17.3244057,10.0031538,16.0810547z M23.6808872,29.6279297
			c-0.8598633,2.440918-3.543457,3.7260742-5.9853516,2.8676758c-4.0356178-1.4215832-4.2166328-7.0857162-0.2540283-8.7485352
			c0.0030518-0.001709,0.0064087-0.0009766,0.0093994-0.0024414c0.0007935-0.0004883,0.0007324-0.001709,0.0015259-0.0021973
			C21.1863976,22.1871071,25.0298576,25.7971611,23.6808872,29.6279297z M21.5406895,23.4350586
			c-1.4053612-0.6936398-2.7888145-0.6986332-4.0981445-0.2072754l-3.7110586-6.4709473
			c0.6182251-0.1430664,1.2984619-0.3317871,2.0641479-0.5795898c2.2558584,1.2407227,4.7431631,1.355957,7.4423819,0.3408203
			c0.6395264,0.2727051,1.2122803,0.4873047,1.7493286,0.6699219
			C21.3575516,23.7029572,21.5176239,23.2370644,21.5406895,23.4350586z M23.5741367,16.1142578
			C23.376688,11.265625,22.6380405,7.845459,21.2726231,5.4123535c1.0505981,0.1850586,2.0300903,0.498291,2.9371338,0.9365234
			c1.0140381,1.2731934,1.8950806,2.6962891,2.6156616,4.2331543c0.0429688,0.0908203,0.1328125,0.144043,0.2265625,0.144043
			c0.0085449,0,0.0167847-0.0048828,0.0253296-0.0058594c0.3271484,0.3139648,0.5019531,0.7390137,0.5291138,1.317627
			c0,0.1401367-0.1100464,0.25-0.2400513,0.2600098c-0.0099487,0-0.0099487,0-0.0099487,0
			c-0.1400146,0-0.25-0.1101074-0.25-0.2399902c-0.0300293-0.7299805-0.3100586-0.9899902-0.5900269-1.1601563l-0.0100098-0.0097656
			c-0.9475727-0.097187-1.9888287,0.3064137-2.2700195,1.1899414c-0.1799927,0.5498047-0.0099487,1.1899414,0.460022,1.6599121
			c0.8258362,0.8258362,1.9056835,0.5538578,3.5620117,0.5522461c0.2601929,0.8105469,0.4967651,1.645752,0.7139282,2.5036621
			c-0.0480347,0.0280762-0.0949707,0.0595703-0.1361694,0.1008301
			C28.1844273,17.5720215,26.4118443,17.3081055,23.5741367,16.1142578z M31.5085239,17.7446289
			c-2.1688042-1.0820656-1.8723068-0.952713-2.0405884-1.0141602c-0.2121582-0.8620605-0.4387817-1.6650391-0.6837769-2.4411621
			c0.6146851-0.0036621,1.2265015,0,1.842041,0.0078125c0.371582,1.017334,0.7084961,2.1376953,0.9960938,3.3449707
			C31.6374035,17.7097244,31.5580521,17.7675438,31.5085239,17.7446289z"></path><path d="M27.6159458 26.0722656l-2.3256836.5610352c-.2866974.0698509-.2357388.4931641.0585938.4931641.1017742 0 .3648891-.0830345 2.3842773-.5678711.1342773-.0327148.2167969-.1674805.1845703-.3017578C27.8849888 26.1225586 27.751688 26.0405273 27.6159458 26.0722656zM25.501688 27.871582c-.1079102-.0834961-.2651367-.0649414-.3505859.0449219-.0844727.1088867-.0644531.2661133.0449219.3505859l1.2919922 1c.1084843.0839863.2657471.0651188.3505859-.0449219.0844727-.1088867.0644531-.2661133-.0449219-.3505859L25.501688 27.871582zM26.2648716 24.2260742l-1.3037109 1.0219727c-.1851292.1459351-.0833302.4467773.1542969.4467773.1608944 0 .1588058-.0801201 1.4580078-1.0751953.1083984-.0854492.1274414-.2421875.0424805-.3510742C26.5300083 24.1591797 26.3737583 24.1416016 26.2648716 24.2260742z"></path></svg></g></svg>