<svg xmlns="http://www.w3.org/2000/svg" viewBox="0 0 32 32" width="256" height="256"><path d="M23.2,11.42H8.8a1,1,0,0,0-.72.3,1,1,0,0,0-.28.73l.4,12.12a4,4,0,0,0,4,3.85h7.6a4,4,0,0,0,4-3.86l.4-12.11a1,1,0,0,0-.28-.73A1,1,0,0,0,23.2,11.42ZM14.59,23.64a1,1,0,0,1-2,0V15.12a1,1,0,0,1,2,0Zm4.82,0a1,1,0,0,1-2,0V15.12a1,1,0,0,1,2,0ZM24.52,7.42h-3.1a1.27,1.27,0,0,1-1.27-1.15,3,3,0,0,0-3-2.69H14.83a3,3,0,0,0-3,2.69,1.27,1.27,0,0,1-1.27,1.15H7.48a1,1,0,0,0,0,2h17a1,1,0,0,0,0-2ZM13.84,6.48a1,1,0,0,1,1-.9h2.34a1,1,0,0,1,1,.9,3.26,3.26,0,0,0,.25.94H13.59A3.26,3.26,0,0,0,13.84,6.48Z"></path></svg>