<svg xmlns="http://www.w3.org/2000/svg" version="1.1" xmlns:xlink="http://www.w3.org/1999/xlink" width="512" height="512" x="0" y="0" viewBox="0 0 32 32" style="enable-background:new 0 0 512 512" xml:space="preserve" class=""><g><g data-name="10 Medal"><path d="m29.051 22.552-5.332-5.331a10.126 10.126 0 1 0-15.437 0l-5.333 5.331a.5.5 0 0 0 .261.845l3.341.629.63 3.342a.5.5 0 0 0 .343.384.471.471 0 0 0 .148.023.493.493 0 0 0 .353-.147L11.25 24.4v6.533a.5.5 0 0 0 .292.454.507.507 0 0 0 .208.046.5.5 0 0 0 .326-.122L16 27.935l3.924 3.38a.5.5 0 0 0 .326.122.507.507 0 0 0 .208-.046.5.5 0 0 0 .292-.454V24.4l3.225 3.224a.493.493 0 0 0 .353.147.471.471 0 0 0 .148-.023.5.5 0 0 0 .343-.385l.629-3.341 3.342-.622a.5.5 0 0 0 .261-.845zM16 1.563a9.123 9.123 0 1 1 0 18.246 9.11 9.11 0 0 1-6.676-2.9l-.006-.009A9.121 9.121 0 0 1 16 1.563zM7.988 26.252l-.518-2.747a.5.5 0 0 0-.4-.4l-2.744-.515 4.639-4.638a10.081 10.081 0 0 0 2.285 1.665v3.373zm4.262-6.176a9.994 9.994 0 0 0 3.25.7v6.265l-3.25 2.8zm7.5 9.77-3.25-2.8v-6.263a10.04 10.04 0 0 0 3.25-.7zm5.177-6.74a.5.5 0 0 0-.4.4l-.516 2.746-3.261-3.262v-3.37a10.2 10.2 0 0 0 2.284-1.67l4.64 4.639z" fill="#000000" opacity="1" data-original="#000000"></path><path d="M16 18.809a8.123 8.123 0 1 0-8.125-8.122A8.132 8.132 0 0 0 16 18.809zm0-15.246a7.123 7.123 0 1 1-7.125 7.124A7.131 7.131 0 0 1 16 3.563z" fill="#000000" opacity="1" data-original="#000000"></path><path d="M12.342 15.065a.5.5 0 0 0 .5.514.516.516 0 0 0 .168-.029L16 14.486l2.993 1.064a.5.5 0 0 0 .667-.486l-.089-3.173 1.937-2.517a.5.5 0 0 0-.255-.784l-3.047-.9-1.794-2.617a.5.5 0 0 0-.824 0l-1.8 2.619-3.045.9a.5.5 0 0 0-.255.784l1.937 2.517zm-.613-5.722 2.516-.743a.5.5 0 0 0 .271-.2L16 6.24l1.482 2.16a.5.5 0 0 0 .271.2l2.517.742-1.6 2.079a.5.5 0 0 0-.1.319l.074 2.622-2.473-.879a.506.506 0 0 0-.335 0l-2.471.879.073-2.622a.5.5 0 0 0-.1-.319z" fill="#000000" opacity="1" data-original="#000000"></path></g></g></svg>