<svg xmlns="http://www.w3.org/2000/svg" version="1.1" xmlns:xlink="http://www.w3.org/1999/xlink" width="512" height="512" x="0" y="0" viewBox="0 0 512 512" style="enable-background:new 0 0 512 512" xml:space="preserve" class=""><g><path d="M114.8 206.3c-1.9 1.1-3.6 2.8-4.7 4.7-.4.6-1.3.6-1.7 0-1.2-2-2.8-3.6-4.8-4.7-.7-.4-.6-1.4 0-1.7l1.1-.6c1.6-.7 2.7-2.4 3.6-4.1.4-.7 1.3-.7 1.7 0 1.1 2 2.8 3.6 4.7 4.8.7.3.7 1.3.1 1.6zM192 246c0 4.1-3.4 7.5-7.5 7.5s-7.5-3.4-7.5-7.5c0-5.8-3.4-11-8.7-13.3-3.8-1.7-5.5-6-3.9-9.8s6-5.6 9.8-3.9c10.8 4.6 17.8 15.3 17.8 27z" fill="#000000" opacity="1" data-original="#000000"></path><path d="M195.3 246c0-18.1-14.7-32.8-32.8-32.8-4.1 0-7.5-3.4-7.5-7.5s3.4-7.5 7.5-7.5c26.4 0 47.8 21.4 47.8 47.8 0 4.1-3.3 7.5-7.5 7.5-4.1 0-7.5-3.3-7.5-7.5zM285.9 201.8c0 3.5-1.3 7-4 9.7 0 0 0 .1-.1.1L256 237.4l-25.8-25.8c-5.4-5.4-5.4-14.2 0-19.6s14.2-5.4 19.6 0l.9.9c2.9 2.9 7.7 2.9 10.6 0l.7-.7c5.4-5.5 14.2-5.6 19.7-.3 2.8 2.7 4.2 6.3 4.2 9.9zM347.2 222.8c1.7 3.8 0 8.2-3.8 9.9-5.3 2.3-8.7 7.5-8.7 13.3 0 4.1-3.4 7.5-7.5 7.5s-7.5-3.4-7.5-7.5c0-11.7 7-22.4 17.7-27 3.7-1.7 8.1.1 9.8 3.8z" fill="#000000" opacity="1" data-original="#000000"></path><path d="M349.1 213.2c-18.1 0-32.8 14.7-32.8 32.8 0 4.1-3.4 7.5-7.5 7.5s-7.5-3.4-7.5-7.5c0-26.4 21.4-47.8 47.8-47.8 4.1 0 7.5 3.4 7.5 7.5s-3.3 7.5-7.5 7.5zM110.6 276.8h110.8v202.7h-88.7c-12.2 0-22.1-10.2-22.1-22.7zM236.4 276.8h39.2v202.7h-39.2zM401.4 276.8v180c0 12.5-9.9 22.7-22.1 22.7h-88.7V276.8zM407.8 204.7c.7.4.6 1.4 0 1.7l-1.1.6c-1.6.7-2.7 2.4-3.6 4.1-.4.7-1.3.7-1.7 0-1.1-2-2.8-3.6-4.7-4.8-.6-.4-.6-1.3 0-1.7 1.9-1.1 3.6-2.8 4.7-4.7.4-.6 1.3-.6 1.7 0 1.1 2 2.7 3.6 4.7 4.8zM152.5 138.6H95c-.6 0-1-.5-1-1.1v-35.8C94 89.2 104 79 116.2 79h15.2v8.9c-.1 20.6 16.6 37.4 37.2 37.4 2.3 0 4.5-.2 6.8-.6-7.4 4.8-15.1 9.4-22.9 13.9z" fill="#000000" opacity="1" data-original="#000000"></path><path d="M148.2 96.7c-1.2-2.8-1.8-5.8-1.8-8.9V55c-.1-7.6 3.7-14.6 10.1-18.7 3.6-2.4 7.9-3.7 12.3-3.7 3.1 0 6.1.6 8.9 1.9l38.1 16.4c1 .4 1.9.9 2.8 1.5-1.8 3.7-3.1 7.6-3.9 11.6H183c-4.1 0-7.5 3.4-7.5 7.5s3.4 7.5 7.5 7.5h31.8c.7 4 2 7.9 3.9 11.6-.9.6-1.9 1-2.8 1.5l-38.1 16.4c-11.5 4.8-24.7-.4-29.6-11.8zM246.9 119.7c-24.7 22.4-51.9 41.9-81 58.1.5-2.4 1-4.8 1.6-7.2.5-2.6-.1-5.4-1.8-7.5-2.2-2.7-5.4-4.3-8.8-4.4-3.2-.1-6.3-.3-9.5-.5 29.1-15.1 56.3-33.6 81.2-55 2.4 2.1 4.9 3.8 7.7 5.3.3.5.6.9 1 1.3 3.2 3.5 6.4 6.7 9.6 9.9zM257.8 130.1c3.1 2.9 6.3 5.7 9.5 8.5h-19.1c3.3-2.8 6.5-5.7 9.6-8.5z" fill="#000000" opacity="1" data-original="#000000"></path><ellipse cx="255.7" cy="71.4" rx="26.6" ry="27.2" fill="#000000" opacity="1" data-original="#000000"></ellipse><path d="M289.8 105.8c24 20.4 50.2 38.1 78.1 52.7-3.2.2-6.3.3-9.5.4-3.4.1-6.6 1.7-8.8 4.3-1.7 2.1-2.3 4.8-1.8 7.5l1.5 7.2c-31.8-17.9-61.2-39.7-87.6-64.8 8.2-1.2 15.9-4.9 22-10.6 1.9 1.2 3.9 2.3 5.9 3.2zM338.3 71.4c0-4.1-3.4-7.5-7.5-7.5h-34.3c-.7-4-2-7.9-3.9-11.6.9-.6 1.9-1.1 2.8-1.5l38.1-16.4c6.9-3 14.9-2.3 21.2 1.9 6.3 4.1 10.2 11.2 10.1 18.7v32.9c0 12.4-10 22.4-22.4 22.4-3 0-6.1-.6-8.9-1.8L295.6 92c-1-.4-1.9-.9-2.8-1.5 1.8-3.7 3.1-7.6 3.9-11.6H331c4 0 7.3-3.4 7.3-7.5z" fill="#000000" opacity="1" data-original="#000000"></path><path d="M418 101.7v35.8c0 .6-.4 1.1-1 1.1h-54.3c-7.5-4.2-14.7-8.7-21.9-13.3h1.8c20.6 0 37.4-16.8 37.4-37.4V79h15.8C408 79 418 89.2 418 101.7z" fill="#000000" opacity="1" data-original="#000000"></path></g></svg>