<svg xmlns="http://www.w3.org/2000/svg" version="1.1" xmlns:xlink="http://www.w3.org/1999/xlink" width="512" height="512" x="0" y="0" viewBox="0 0 168 168" style="enable-background:new 0 0 512 512" xml:space="preserve" class=""><g><path fill="#0bceb2" d="M33.247 63.285c-.268.326-1.759 2.466-2.143 3.022-2.22 3.206-2.353 3.398-2.127 4.363a2.009 2.009 0 0 0 1.128 1.371 36.332 36.332 0 0 1 6.975 4.108 41.224 41.224 0 0 1 3.407 2.997c.93.88 1.89 1.788 2.924 2.636a2 2 0 0 0 3.204-1.042c.769-2.952 4.47-7.519 5.705-8.885a23.85 23.85 0 0 1 10.517-7.118c3.813-1.178 8.012-1.28 12.074-1.38l.573-.013a7.839 7.839 0 0 0 6.026 2.707h5.664a7.863 7.863 0 0 0 6.032-2.69c4.025.098 8.18.209 11.957 1.376a23.846 23.846 0 0 1 10.516 7.118c1.236 1.366 4.937 5.933 5.706 8.885a2 2 0 0 0 3.204 1.042c1.033-.848 1.994-1.756 2.924-2.636a41.248 41.248 0 0 1 3.408-2.998 36.326 36.326 0 0 1 6.973-4.106 2.007 2.007 0 0 0 1.129-1.373c.226-.964.093-1.156-2.127-4.362-.384-.556-1.875-2.696-2.144-3.023a25.909 25.909 0 0 0-5.206-4.898 14.63 14.63 0 0 0 5.311-6.426 2 2 0 0 0-.278-1.97l-17.732-22.822a4.607 4.607 0 0 0-2.053-2.788c-4.562-2.902-10.615-.641-14.59 2.888a31.186 31.186 0 0 0-8.29 13.291 83.971 83.971 0 0 0-1.12 3.8 8.562 8.562 0 0 0-2.255-.308h-9.077a8.48 8.48 0 0 0-2.254.315 84.053 84.053 0 0 0-1.123-3.807 31.186 31.186 0 0 0-8.288-13.291c-3.976-3.528-10.03-5.79-14.59-2.888a4.608 4.608 0 0 0-2.054 2.788L33.421 49.991a2 2 0 0 0-.278 1.97 16.81 16.81 0 0 0 5.299 6.434 25.935 25.935 0 0 0-5.195 4.89zm98.4 2.52c.221.285 1.532 2.15 2.523 3.596a39.544 39.544 0 0 0-5.66 3.556 44.875 44.875 0 0 0-3.745 3.282q-.333.316-.659.622a42.422 42.422 0 0 0-5.46-7.69 27.765 27.765 0 0 0-12.303-8.256 43.023 43.023 0 0 0-11.62-1.515l.096-.636a21.48 21.48 0 0 1 1.406-.778c4.114-2.112 8.522-.655 13.19.887 1.649.544 3.355 1.108 5.047 1.502a14.864 14.864 0 0 0 5.568-.036 14.064 14.064 0 0 1 3.553-.207c3.27.393 6.468 3.738 8.064 5.674zm-16.01-33.675 14.995 19.3a14.693 14.693 0 0 1-5.317 4.974 9.891 9.891 0 0 0-1.255-.243 17.272 17.272 0 0 0-4.584.217 11.47 11.47 0 0 1-4.107.101c-1.516-.353-3.063-.864-4.7-1.405-4.655-1.538-9.888-3.263-15.113-1.17l.379-2.495a5.743 5.743 0 0 0 .01-1.607c7.485-3.3 16.46-12.444 19.692-17.672zM95.72 41.787a27.036 27.036 0 0 1 7.137-11.527c1.993-1.769 4.757-3.213 7.188-3.213a4.77 4.77 0 0 1 2.601.708c.228.145.54.343.211 1.122-1.776 4.207-11.585 14.208-18.402 17.268.42-1.595.835-3.025 1.265-4.358zM76.46 49.329a3.822 3.822 0 0 1 3.002-1.278h9.077a3.884 3.884 0 0 1 2.942 1.206 1.93 1.93 0 0 1 .499 1.553l-1.366 9c-.19 1.256-1.701 2.241-3.44 2.241H81.51c-1.674 0-3.143-.909-3.417-2.115l-2.048-9a1.878 1.878 0 0 1 .415-1.607zM55.353 27.755a4.763 4.763 0 0 1 2.6-.708c2.432 0 5.196 1.444 7.189 3.213a27.036 27.036 0 0 1 7.137 11.527 83.46 83.46 0 0 1 1.265 4.358c-6.817-3.06-16.626-13.061-18.402-17.268-.33-.779-.017-.977.211-1.122zM37.367 51.43 52.363 32.13c3.232 5.227 12.202 14.367 19.686 17.669a5.75 5.75 0 0 0 .096 2.025l.491 2.159c-5.287-2.214-10.592-.465-15.305 1.091-1.637.541-3.184 1.052-4.7 1.405a11.47 11.47 0 0 1-4.107-.101 17.27 17.27 0 0 0-4.585-.217 9.882 9.882 0 0 0-1.254.243 14.701 14.701 0 0 1-5.318-4.973zm7.05 8.701a14.153 14.153 0 0 1 3.553.207 14.873 14.873 0 0 0 5.568.036c1.692-.394 3.398-.958 5.048-1.502 4.667-1.542 9.074-2.999 13.19-.886a15.317 15.317 0 0 1 2.046 1.207l.043.19a44.782 44.782 0 0 0-12.208 1.53 27.774 27.774 0 0 0-12.304 8.258 42.456 42.456 0 0 0-5.459 7.69q-.327-.307-.66-.623a44.851 44.851 0 0 0-3.743-3.281A39.552 39.552 0 0 0 33.83 69.4c.989-1.445 2.295-3.302 2.503-3.572 1.616-1.959 4.813-5.304 8.084-5.697z" opacity="1" data-original="#0bceb2" class=""></path><circle cx="2" cy="149.052" r="2" fill="#2d4356" opacity="1" data-original="#2d4356" class=""></circle><path fill="#2d4356" d="M11 147.052H8a2 2 0 0 0 0 4h3a2 2 0 0 0 0-4zM160 147.052h-3a2 2 0 0 0 0 4h3a2 2 0 0 0 0-4z" opacity="1" data-original="#2d4356" class=""></path><circle cx="166" cy="149.052" r="2" fill="#2d4356" opacity="1" data-original="#2d4356" class=""></circle><path fill="#0bceb2" d="M118.154 155.052h-8.308a2.006 2.006 0 0 0 0 4h8.308a2.006 2.006 0 0 0 0-4zM58.154 155.052h-8.308a2.006 2.006 0 0 0 0 4h8.308a2.006 2.006 0 0 0 0-4zM104 155.052H64a2 2 0 0 0 0 4h15.94v2H72a2 2 0 0 0 0 4h25a2 2 0 0 0 0-4h-8.94v-2H104a2 2 0 0 0 0-4z" opacity="1" data-original="#0bceb2" class=""></path><g fill="#2d4356"><path d="M150.721 147.052h-45.007l30.688-6.29a2 2 0 0 0 1.598-1.96V91.048l2.268-.307A2 2 0 0 0 142 88.76V73.623a6.018 6.018 0 0 1-2.466 2.067c-.522.235-1.032.484-1.534.742v10.58l-19.042 2.573V84.36a5.993 5.993 0 0 1-1.444-2.612 17.558 17.558 0 0 0-2.556-4.416v63.742l-7.5 1.537v-71.06a1.983 1.983 0 0 0-.3-1.043l.744-.1a16.345 16.345 0 0 0-3.92-1.85 25.253 25.253 0 0 0-5.259-.946L86.04 69.326 71.334 67.48a29.833 29.833 0 0 0-7.316 1.08 17.047 17.047 0 0 0-5.06 2.63v70.762l-7.5-1.405V79.72a9.142 9.142 0 0 0-.972 2.028 5.963 5.963 0 0 1-3.028 3.795v3.644L30 86.995V76.432a34.672 34.672 0 0 0-1.54-.744A6.02 6.02 0 0 1 26 73.623V88.76a2 2 0 0 0 1.75 1.985l2.25.282v47.91a2 2 0 0 0 1.632 1.965l32.834 6.151H17.28a2.017 2.017 0 1 0 0 4H150.72a2.017 2.017 0 1 0 0-4zm-31.763-53.43L134 91.589v45.581l-15.041 3.084zm-71.5 46.174L34 137.275V91.529l13.458 1.69zM88 73.098l15.546-2.101a1.978 1.978 0 0 0-.088.554v20.13L88 93.768zm0 24.708 15.458-2.09v47.715L88 146.6zM62.958 70.458 84 73.103v20.676l-21.042-2.643zm0 24.709L84 97.81v48.832L62.958 142.7zM92.805 25.052a3 3 0 1 0-3-3 3.003 3.003 0 0 0 3 3zm0-4.5a1.5 1.5 0 1 1-1.5 1.5 1.501 1.501 0 0 1 1.5-1.5zM160.805 60.552a2 2 0 1 0 2 2 2.002 2.002 0 0 0-2-2zm0 3a1 1 0 1 1 1-1 1.001 1.001 0 0 1-1 1zM4.555 7.552a2 2 0 1 0 2 2 2.002 2.002 0 0 0-2-2zm0 3a1 1 0 1 1 1-1 1.001 1.001 0 0 1-1 1zM138.805 38.052a2 2 0 1 0 2 2 2.002 2.002 0 0 0-2-2zm0 3a1 1 0 1 1 1-1 1.001 1.001 0 0 1-1 1zM33.5 39.302a2 2 0 1 0-2 2 2.002 2.002 0 0 0 2-2zm-3 0a1 1 0 1 1 1 1 1.001 1.001 0 0 1-1-1z" fill="#2d4356" opacity="1" data-original="#2d4356" class=""></path></g><path fill="#0bceb2" d="m10.888 68.064 1.487-1.956-.939-.532-.955 2.19h-.031l-.97-2.175-.955.548 1.471 1.909v.032l-2.301-.298v1.064l2.316-.297v.031l-1.486 1.909.891.563 1.018-2.206h.031l.939 2.19.986-.563-1.502-1.878v-.031l2.362.282v-1.064l-2.362.313zM58.081 6.619l-.856 1.099.514.325.586-1.271h.017l.541 1.261.568-.324-.865-1.081V6.61l1.36.162v-.613l-1.36.18v-.018l.856-1.126-.54-.306-.55 1.261h-.018l-.559-1.252-.55.315.847 1.1v.018l-1.325-.172v.613l1.334-.171zM164.805 18.016v-1.044l-2.317.307v-.031l1.458-1.918-.921-.521-.936 2.148h-.031l-.951-2.133-.937.537 1.443 1.872v.031l-2.257-.292v1.044l2.272-.291v.03l-1.458 1.872.875.553.998-2.164h.03l.921 2.148.967-.552-1.473-1.842v-.03zM118.25 5.052l1.258-1.654-.794-.45-.808 1.853h-.027l-.82-1.84-.809.463 1.245 1.615v.027l-1.946-.252v.9l1.959-.251v.026l-1.258 1.615.755.477.861-1.867h.026l.795 1.854.834-.477-1.271-1.589v-.026l1.998.238v-.9l-1.998.265z" opacity="1" data-original="#0bceb2" class=""></path></g></svg>