<svg width="60" height="59" class="card__img"><symbol fill="none" viewBox="-1 -1 62 61" id="cup" xmlns="http://www.w3.org/2000/svg"><path d="M20.434 56.33a1.315 1.315 0 010 2.63H1.314A1.315 1.315 0 010 57.647v-8.718c0-.726.589-1.315 1.315-1.315h19.119a1.315 1.315 0 010 2.63H2.683v6.068l17.75.02z" fill="#82317A"></path><path d="M39.57 56.331a1.315 1.315 0 010 2.63H20.433a1.315 1.315 0 01-1.315-1.315v-5.26a1.315 1.315 0 012.63 0v3.945h17.824zm-17.803-7.403a1.315 1.315 0 01-2.63 0v-9.862c0-.726.589-1.315 1.315-1.315H39.57a1.315 1.315 0 011.314 1.315v15.122a1.315 1.315 0 11-2.63 0V40.38H21.82l-.052 8.547z" fill="#82317A"></path><path d="M39.573 50.263a1.315 1.315 0 110-2.63h19.112A1.315 1.315 0 0160 48.948v8.711a1.316 1.316 0 01-1.315 1.315H39.573a1.315 1.315 0 110-2.63h17.751v-6.081h-17.75zM19.19 0h21.485a1.314 1.314 0 011.315 1.315c0 9.954-3.025 16.396-6.877 19.283a8.301 8.301 0 01-10.381.014c-3.846-2.886-6.857-9.33-6.857-19.284 0-.726.588-1.315 1.315-1.315V0zm20.15 2.63H20.543c.23 8.283 2.689 13.549 5.792 15.851a5.65 5.65 0 007.233 0c3.103-2.3 5.561-7.567 5.805-15.851h-.033z" fill="#82317A"></path><path d="M40.678 6.108a1.315 1.315 0 110-2.63h5.917a1.315 1.315 0 011.315 1.315c.08 2.798-.451 5.58-1.558 8.152-1.02 2.17-2.485 3.577-4.083 4.175a1.319 1.319 0 01-.92-2.472c.96-.355 1.9-1.314 2.63-2.826a15.125 15.125 0 001.255-5.72l-4.556.006zM19.326 3.465a1.314 1.314 0 010 2.63h-4.563c.152 3.208.94 5.53 2.012 6.989a4.949 4.949 0 001.387 1.367c.42.236.893.365 1.374.375a2.877 2.877 0 001.69-.585 1.317 1.317 0 111.539 2.136 5.445 5.445 0 01-3.235 1.092 5.311 5.311 0 01-2.683-.75 7.225 7.225 0 01-2.235-2.064c-1.525-2.078-2.557-5.378-2.557-9.862 0-.726.588-1.315 1.315-1.315l5.956-.013zM34.516 35.12a1.315 1.315 0 010-2.629h1.446v-1.236a1.165 1.165 0 00-.361-.861 1.316 1.316 0 00-.861-.355H24.733c-.32.009-.627.135-.861.355a1.166 1.166 0 00-.362.86v1.223h7.56a1.315 1.315 0 110 2.63h-8.908a1.314 1.314 0 01-1.314-1.314v-2.538a3.899 3.899 0 011.13-2.735 3.832 3.832 0 012.755-1.144H34.74c1.024 0 2.005.412 2.721 1.144a3.897 3.897 0 011.131 2.735v2.551a1.316 1.316 0 01-1.315 1.315h-2.761z" fill="#82317A"></path><path d="M26.093 18.363a9.815 9.815 0 011.598 5.457 10.423 10.423 0 01-1.598 5.602l-2.222-1.44a7.637 7.637 0 001.17-4.162 7.176 7.176 0 00-1.15-3.991l2.203-1.466zM36.147 19.828a7.19 7.19 0 00-1.164 3.99 7.692 7.692 0 001.164 4.163l-2.209 1.44a10.209 10.209 0 01-1.617-5.602 9.782 9.782 0 011.617-5.457l2.209 1.466zM30.888 5.582l.842 2.63h2.748a.987.987 0 01.993.992.947.947 0 01-.408.802l-2.222 1.61.848 2.63a.983.983 0 01-.658 1.237.946.946 0 01-.94-.19l-2.143-1.585-2.222 1.63c-.447.31-1.06.212-1.387-.223a1.001 1.001 0 01-.152-.882l.868-2.63-2.242-1.61a1.006 1.006 0 01-.223-1.387 1.05 1.05 0 01.88-.408h2.69l.848-2.63a.992.992 0 011.242-.657c.311.102.555.346.658.658l-.02.013zM30.06 9.48l-.112-.376-.131.375a.967.967 0 01-.94.697h-.395l.316.243c.35.25.496.697.361 1.105l-.112.375.296-.224a.985.985 0 011.184 0l.322.243-.112-.354a.96.96 0 01.355-1.144l.322-.243h-.355a1 1 0 01-1-.697z" fill="#82317A"></path></symbol> <use xlink:href="#cup"></use></svg>