<svg xmlns="http://www.w3.org/2000/svg" version="1.1" xmlns:xlink="http://www.w3.org/1999/xlink" width="512" height="512" x="0" y="0" viewBox="0 0 512 512" style="enable-background:new 0 0 512 512" xml:space="preserve" class=""><g><path d="M408.941 261.792H103.058a7.5 7.5 0 0 0-7.5 7.5v187.53c0 20.775 16.669 37.678 37.156 37.678h246.571c20.488 0 37.156-16.903 37.156-37.678v-187.53a7.5 7.5 0 0 0-7.5-7.5zm-298.383 195.03v-180.03h110.828V479.5h-88.672c-12.216 0-22.156-10.173-22.156-22.678zM236.386 479.5V276.792h39.228V479.5zm165.055-22.678c0 12.505-9.939 22.678-22.156 22.678h-88.67V276.792H401.44zM395.809 63.964h-15.802v-9.016a37.416 37.416 0 0 0-52.225-34.36l-38.15 16.44a38.754 38.754 0 0 0-5.939 3.22 41.057 41.057 0 0 0-56 0 38.745 38.745 0 0 0-5.94-3.22l-38.15-16.44a37.416 37.416 0 0 0-52.224 34.36v9.016h-15.187c-20.488 0-37.157 16.902-37.157 37.677v35.782a16.066 16.066 0 0 0 15.974 16.122h28.401c-.161.076-.32.155-.481.23a8.755 8.755 0 0 0-5.056 9.479c.775 4.517 5.008 8.149 10.07 8.636 7.816.749 15.73 1.322 23.588 1.709-.807 3.677-1.624 7.356-2.44 10.987a9.278 9.278 0 0 0 3.68 9.456 12.807 12.807 0 0 0 7.521 2.5 10.433 10.433 0 0 0 4.985-1.224 468.58 468.58 0 0 0 64.546-41.773h55.8a468.096 468.096 0 0 0 64.257 41.888 10.457 10.457 0 0 0 5.027 1.242 12.818 12.818 0 0 0 7.49-2.471 9.274 9.274 0 0 0 3.726-9.414c-.802-3.642-1.603-7.334-2.396-11.032a511.266 511.266 0 0 0 23.634-1.639c5.063-.47 9.311-4.09 10.1-8.607a8.747 8.747 0 0 0-5.01-9.485c-.335-.158-.663-.324-.997-.482h25.537a16.067 16.067 0 0 0 15.973-16.122V101.64c0-20.775-16.667-37.677-37.155-37.677zm22.156 73.459a1.057 1.057 0 0 1-.974 1.122h-54.35q-11.194-6.371-21.864-13.331.916.045 1.831.046a37.444 37.444 0 0 0 37.399-37.429v-8.867h15.802c12.216 0 22.156 10.173 22.156 22.677zm-50.075 21.103q-4.77.266-9.52.44a11.785 11.785 0 0 0-8.8 4.342 9.099 9.099 0 0 0-1.812 7.471q.757 3.584 1.529 7.178a439.736 439.736 0 0 1-87.607-64.841 41.203 41.203 0 0 0 22.013-10.586 38.753 38.753 0 0 0 5.939 3.22l.14.06a428.255 428.255 0 0 0 78.118 52.716zm-202.155 4.67a11.775 11.775 0 0 0-8.79-4.372q-4.725-.187-9.483-.468a427.801 427.801 0 0 0 81.207-54.964 41.694 41.694 0 0 0 7.696 5.314 9.205 9.205 0 0 0 1.029 1.32c3.114 3.27 6.302 6.48 9.527 9.658a442.616 442.616 0 0 1-80.961 58.144q.787-3.584 1.56-7.16a9.089 9.089 0 0 0-1.785-7.472zm-71.7-25.774v-35.78c0-12.505 9.94-22.678 22.157-22.678h15.188v8.867a37.325 37.325 0 0 0 44.01 36.826q-11.16 7.263-22.895 13.888H95.009a1.057 1.057 0 0 1-.974-1.122zm62.44-101.2a22.2 22.2 0 0 1 12.253-3.735 22.534 22.534 0 0 1 8.939 1.876l38.15 16.441a23.843 23.843 0 0 1 2.84 1.471 42.242 42.242 0 0 0-3.863 11.615H182.98a7.5 7.5 0 0 0 0 15h31.815a42.238 42.238 0 0 0 3.863 11.614 23.86 23.86 0 0 1-2.84 1.471l-38.15 16.442a22.416 22.416 0 0 1-31.288-20.586V54.949a22.065 22.065 0 0 1 10.096-18.726zm198.437 0a22.066 22.066 0 0 1 10.095 18.726v32.883a22.415 22.415 0 0 1-31.287 20.585l-38.15-16.44a23.845 23.845 0 0 1-2.84-1.473 42.24 42.24 0 0 0 3.862-11.613h34.26a7.5 7.5 0 0 0 0-15h-34.26a42.242 42.242 0 0 0-3.863-11.614 23.858 23.858 0 0 1 2.84-1.471l38.15-16.442a22.066 22.066 0 0 1 21.193 1.86zM282.264 71.39c0 14.981-11.92 27.169-26.57 27.169s-26.571-12.188-26.571-27.169 11.919-27.17 26.57-27.17 26.57 12.188 26.57 27.17zm-24.453 58.66q4.69 4.31 9.522 8.495h-19.106q4.862-4.185 9.584-8.496z" fill="#000000" opacity="1" data-original="#000000" class=""></path><path d="M255.927 177.73a28.888 28.888 0 0 0-36.498 44.432l28.36 28.358a11.451 11.451 0 0 0 16.194 0l28.36-28.358a28.886 28.886 0 0 0-.156-41.005 29.056 29.056 0 0 0-36.26-3.427zm25.808 33.825-25.85 25.85-25.85-25.85a13.886 13.886 0 0 1 19.64-19.638l.907.908a7.499 7.499 0 0 0 10.608-.002l.717-.717a14.06 14.06 0 0 1 19.753-.264 13.886 13.886 0 0 1 .075 19.714zM202.813 253.508a7.5 7.5 0 0 0 7.5-7.5 47.903 47.903 0 0 0-47.849-47.849 7.5 7.5 0 0 0 0 15 32.886 32.886 0 0 1 32.849 32.85 7.5 7.5 0 0 0 7.5 7.5z" fill="#000000" opacity="1" data-original="#000000" class=""></path><path d="M174.243 218.958a7.5 7.5 0 0 0-5.994 13.75 14.512 14.512 0 0 1 8.724 13.3 7.5 7.5 0 0 0 15 0 29.508 29.508 0 0 0-17.73-27.05zM352.634 205.66a7.5 7.5 0 0 0-7.5-7.5 47.903 47.903 0 0 0-47.849 47.848 7.5 7.5 0 1 0 15 0 32.886 32.886 0 0 1 32.849-32.849 7.5 7.5 0 0 0 7.5-7.5z" fill="#000000" opacity="1" data-original="#000000" class=""></path><path d="M333.356 218.958a29.507 29.507 0 0 0-17.73 27.05 7.5 7.5 0 0 0 15 0 14.511 14.511 0 0 1 8.723-13.3 7.5 7.5 0 0 0-5.994-13.75zM102.666 232a7.5 7.5 0 0 0 13.16 0l7.052-12.893 12.892-7.05a7.5 7.5 0 0 0 0-13.16l-12.892-7.052-7.052-12.893a7.5 7.5 0 0 0-13.16 0l-7.052 12.893-12.892 7.051a7.5 7.5 0 0 0 0 13.16l12.893 7.051zm2.074-28.05c2.194-1.021 3.413-3.762 4.507-5.77a13.047 13.047 0 0 0 7.295 7.296 13.045 13.045 0 0 0-7.295 7.295c-1.098-2.013-2.31-4.743-4.507-5.77l-2.788-1.525zM428.679 198.896l-12.892-7.051-7.052-12.893a7.5 7.5 0 0 0-13.16 0l-7.051 12.893-12.893 7.051a7.5 7.5 0 0 0 0 13.16l12.893 7.051L395.575 232a7.5 7.5 0 0 0 13.16 0l7.052-12.893 12.892-7.05a7.5 7.5 0 0 0 0-13.16zm-22.017 8.105c-2.194 1.022-3.413 3.762-4.507 5.77a13.046 13.046 0 0 0-7.295-7.295 13.049 13.049 0 0 0 7.295-7.295 13.05 13.05 0 0 0 7.295 7.295z" fill="#000000" opacity="1" data-original="#000000" class=""></path></g></svg>